<?xml version="1.0" standalone="no"?>
<!DOCTYPE svg PUBLIC "-//W3C//DTD SVG 20010904//EN"
 "http://www.w3.org/TR/2001/REC-SVG-20010904/DTD/svg10.dtd">
<svg version="1.0" xmlns="http://www.w3.org/2000/svg"
 width="260.000000pt" height="260.000000pt" viewBox="0 0 260.000000 260.000000"
 preserveAspectRatio="xMidYMid meet">
<metadata>
Created by potrace 1.11, written by Peter Selinger 2001-2013
</metadata>
<g transform="translate(0.000000,260.000000) scale(0.100000,-0.100000)"
fill="#000000" stroke="none">
<path d="M650 1320 l0 -982 448 5 c246 2 463 7 482 11 99 20 126 29 205 66
217 104 334 287 333 524 -1 242 -129 418 -360 491 l-70 22 56 38 c146 97 216
233 203 399 -7 88 -10 101 -38 161 -47 100 -154 175 -308 217 -70 19 -110 21
-513 25 l-438 5 0 -982z m814 745 c84 -17 128 -38 164 -79 41 -47 54 -101 48
-193 -5 -87 -39 -164 -87 -202 -17 -13 -59 -36 -92 -50 -60 -24 -70 -25 -324
-29 l-263 -4 0 287 0 286 246 -2 c146 -1 271 -7 308 -14z m141 -797 c114 -34
193 -99 222 -182 18 -53 24 -186 12 -258 -17 -97 -113 -194 -227 -228 -107
-32 -167 -37 -442 -39 l-260 -2 0 366 0 367 323 -5 c242 -3 334 -8 372 -19z"/>
</g>
</svg>
